<svg xmlns="http://www.w3.org/2000/svg" viewBox="0 0 1610 1064" width="1610" height="1064" font-family="Arial, Helvetica, sans-serif">
<defs>
  <pattern id="wall" width="7" height="7" patternUnits="userSpaceOnUse" patternTransform="rotate(45)">
    <rect width="7" height="7" fill="#e9ecef"/>
    <line x1="0" y1="0" x2="0" y2="7" stroke="#2b2b2b" stroke-width="1.1"/>
  </pattern>
  <linearGradient id="floor" x1="0" y1="0" x2="0" y2="1">
    <stop offset="0%" stop-color="#3a3a3a"/>
    <stop offset="100%" stop-color="#1c1c1c"/>
  </linearGradient>
  <linearGradient id="metal" x1="0" y1="0" x2="0" y2="1">
    <stop offset="0%" stop-color="#777"/>
    <stop offset="50%" stop-color="#555"/>
    <stop offset="100%" stop-color="#3d3d3d"/>
  </linearGradient>
</defs>
<rect width="1610" height="1064" fill="#ffffff"/>
<rect x="203" y="51" width="1200" height="378" fill="#000" opacity="0.06"/>
<rect x="214" y="62" width="1172" height="350" fill="#ffffff"/>
<g stroke="#d3d8df" stroke-width="0.6">
<line x1="264" y1="62" x2="264" y2="412"/>
<line x1="314" y1="62" x2="314" y2="412"/>
<line x1="364" y1="62" x2="364" y2="412"/>
<line x1="414" y1="62" x2="414" y2="412"/>
<line x1="464" y1="62" x2="464" y2="412"/>
<line x1="514" y1="62" x2="514" y2="412"/>
<line x1="564" y1="62" x2="564" y2="412"/>
<line x1="614" y1="62" x2="614" y2="412"/>
<line x1="664" y1="62" x2="664" y2="412"/>
<line x1="714" y1="62" x2="714" y2="412"/>
<line x1="764" y1="62" x2="764" y2="412"/>
<line x1="814" y1="62" x2="814" y2="412"/>
<line x1="864" y1="62" x2="864" y2="412"/>
<line x1="914" y1="62" x2="914" y2="412"/>
<line x1="964" y1="62" x2="964" y2="412"/>
<line x1="1014" y1="62" x2="1014" y2="412"/>
<line x1="1064" y1="62" x2="1064" y2="412"/>
<line x1="1114" y1="62" x2="1114" y2="412"/>
<line x1="1164" y1="62" x2="1164" y2="412"/>
<line x1="1214" y1="62" x2="1214" y2="412"/>
<line x1="1264" y1="62" x2="1264" y2="412"/>
<line x1="1314" y1="62" x2="1314" y2="412"/>
<line x1="1364" y1="62" x2="1364" y2="412"/>
<line x1="214" y1="112" x2="1386" y2="112"/>
<line x1="214" y1="162" x2="1386" y2="162"/>
<line x1="214" y1="212" x2="1386" y2="212"/>
<line x1="214" y1="262" x2="1386" y2="262"/>
<line x1="214" y1="312" x2="1386" y2="312"/>
<line x1="214" y1="362" x2="1386" y2="362"/>
</g>
<rect x="200" y="48" width="1200" height="14" fill="url(#wall)" stroke="#1a1a1a" stroke-width="1.6"/>
<rect x="200" y="48" width="14" height="378" fill="url(#wall)" stroke="#1a1a1a" stroke-width="1.6"/>
<rect x="1386" y="48" width="14" height="378" fill="url(#wall)" stroke="#1a1a1a" stroke-width="1.6"/>
<rect x="200" y="412" width="1200" height="14" fill="url(#floor)" stroke="#111" stroke-width="1.4"/>
<rect x="200" y="48" width="1200" height="378" fill="none" stroke="#111" stroke-width="2"/>
<rect x="214" y="62" width="1172" height="350" fill="none" stroke="#222" stroke-width="1.1"/>
<text x="239.0" y="41" text-anchor="middle" font-size="12.5" font-weight="600" fill="#2a2a2a">1</text>
<text x="289.0" y="41" text-anchor="middle" font-size="12.5" font-weight="600" fill="#2a2a2a">2</text>
<text x="339.0" y="41" text-anchor="middle" font-size="12.5" font-weight="600" fill="#2a2a2a">3</text>
<text x="389.0" y="41" text-anchor="middle" font-size="12.5" font-weight="600" fill="#2a2a2a">4</text>
<text x="439.0" y="41" text-anchor="middle" font-size="12.5" font-weight="600" fill="#2a2a2a">5</text>
<text x="489.0" y="41" text-anchor="middle" font-size="12.5" font-weight="600" fill="#2a2a2a">6</text>
<text x="539.0" y="41" text-anchor="middle" font-size="12.5" font-weight="600" fill="#2a2a2a">7</text>
<text x="589.0" y="41" text-anchor="middle" font-size="12.5" font-weight="600" fill="#2a2a2a">8</text>
<text x="639.0" y="41" text-anchor="middle" font-size="12.5" font-weight="600" fill="#2a2a2a">9</text>
<text x="689.0" y="41" text-anchor="middle" font-size="12.5" font-weight="600" fill="#2a2a2a">10</text>
<text x="739.0" y="41" text-anchor="middle" font-size="12.5" font-weight="600" fill="#2a2a2a">11</text>
<text x="789.0" y="41" text-anchor="middle" font-size="12.5" font-weight="600" fill="#2a2a2a">12</text>
<text x="839.0" y="41" text-anchor="middle" font-size="12.5" font-weight="600" fill="#2a2a2a">13</text>
<text x="889.0" y="41" text-anchor="middle" font-size="12.5" font-weight="600" fill="#2a2a2a">14</text>
<text x="939.0" y="41" text-anchor="middle" font-size="12.5" font-weight="600" fill="#2a2a2a">15</text>
<text x="989.0" y="41" text-anchor="middle" font-size="12.5" font-weight="600" fill="#2a2a2a">16</text>
<text x="1039.0" y="41" text-anchor="middle" font-size="12.5" font-weight="600" fill="#2a2a2a">17</text>
<text x="1089.0" y="41" text-anchor="middle" font-size="12.5" font-weight="600" fill="#2a2a2a">18</text>
<text x="1139.0" y="41" text-anchor="middle" font-size="12.5" font-weight="600" fill="#2a2a2a">19</text>
<text x="1189.0" y="41" text-anchor="middle" font-size="12.5" font-weight="600" fill="#2a2a2a">20</text>
<text x="1239.0" y="41" text-anchor="middle" font-size="12.5" font-weight="600" fill="#2a2a2a">21</text>
<text x="1289.0" y="41" text-anchor="middle" font-size="12.5" font-weight="600" fill="#2a2a2a">22</text>
<text x="1339.0" y="41" text-anchor="middle" font-size="12.5" font-weight="600" fill="#2a2a2a">23</text>
<text x="1389.0" y="41" text-anchor="middle" font-size="12.5" font-weight="600" fill="#2a2a2a">24</text>
<text x="188" y="91.0" text-anchor="middle" font-size="12.5" font-weight="600" fill="#2a2a2a">7</text>
<text x="188" y="141.0" text-anchor="middle" font-size="12.5" font-weight="600" fill="#2a2a2a">6</text>
<text x="188" y="191.0" text-anchor="middle" font-size="12.5" font-weight="600" fill="#2a2a2a">5</text>
<text x="188" y="241.0" text-anchor="middle" font-size="12.5" font-weight="600" fill="#2a2a2a">4</text>
<text x="188" y="291.0" text-anchor="middle" font-size="12.5" font-weight="600" fill="#2a2a2a">3</text>
<text x="188" y="341.0" text-anchor="middle" font-size="12.5" font-weight="600" fill="#2a2a2a">2</text>
<text x="188" y="391.0" text-anchor="middle" font-size="12.5" font-weight="600" fill="#2a2a2a">1</text>
<rect x="196" y="412" width="12" height="14" fill="#5a5a5a" stroke="#2a2a2a" stroke-width="1.4"/>
<line x1="188" y1="406" x2="188" y2="456" stroke="#444" stroke-width="3"/>
<line x1="188" y1="444" x2="206" y2="444" stroke="#444" stroke-width="2.6"/>
<line x1="190" y1="434" x2="202" y2="434" stroke="#444" stroke-width="4"/>
<circle cx="210" cy="444" r="4.5" fill="none" stroke="#444" stroke-width="1.6"/>
<rect x="210" y="428" width="1180" height="5" fill="url(#metal)" stroke="#2a2a2a" stroke-width="0.8"/>
<line x1="939" y1="432" x2="1069" y2="432" stroke="#333" stroke-width="3.5"/>
<path d="M956,431 Q974,426 992,431" fill="none" stroke="#555" stroke-width="1.8"/>
<path d="M1016,431 Q1034,426 1052,431" fill="none" stroke="#555" stroke-width="1.8"/>
<rect x="944" y="419" width="14" height="26" rx="3" fill="#2a2a2a" stroke="#111" stroke-width="1.2"/>
<circle cx="951" cy="432" r="4" fill="#555" stroke="#333" stroke-width="0.8"/>
<rect x="1050" y="419" width="14" height="26" rx="3" fill="#2a2a2a" stroke="#111" stroke-width="1.2"/>
<circle cx="1057" cy="432" r="4" fill="#555" stroke="#333" stroke-width="0.8"/>
<rect x="1400" y="411" width="175" height="16" fill="#222" stroke="#111" stroke-width="2"/>
<rect x="1571" y="407" width="22" height="24" rx="2" fill="#333" stroke="#111" stroke-width="2.2"/>
<circle cx="1599" cy="419" r="5" fill="#555" stroke="#222" stroke-width="2"/>
<circle cx="1599" cy="419" r="2" fill="#333"/>
<rect x="1465" y="427" width="10" height="70" fill="#444" stroke="#222" stroke-width="1.8"/>
<rect x="1460" y="497" width="20" height="5" rx="1" fill="#555" stroke="#222" stroke-width="1.4"/>
<line x1="1460" y1="435" x2="1480" y2="435" stroke="#333" stroke-width="3"/>
<circle cx="1480" cy="435" r="3" fill="#555" stroke="#333" stroke-width="1"/>
<path d="M1505,427 q-4,12 0,22 q4,8 -2,14" fill="none" stroke="#444" stroke-width="2" stroke-dasharray="3,2"/>
<path d="M1522,427 q-4,12 0,22 q4,8 -2,14" fill="none" stroke="#444" stroke-width="2" stroke-dasharray="3,2"/>
<line x1="10" y1="478" x2="1600" y2="478" stroke="#b4bac1" stroke-width="0.8" stroke-dasharray="7,5"/>
<text x="1396" y="498" text-anchor="end" font-size="13" font-weight="700" fill="#1a1a2e" letter-spacing="1">INTERIOR VIEW - RIGHT</text>
<rect x="1418" y="44" width="44" height="40" rx="3" fill="#fff" stroke="#1a1a1a" stroke-width="1.8"/>
<text x="1434" y="71" text-anchor="middle" font-size="22" fill="#1a1a1a">&#8593;</text>
<polygon points="1452,56 1462,64 1452,72" fill="#1a1a1a"/>
<rect x="203" y="579" width="1200" height="378" fill="#000" opacity="0.06"/>
<rect x="214" y="590" width="1172" height="350" fill="#ffffff"/>
<g stroke="#d3d8df" stroke-width="0.6">
<line x1="264" y1="590" x2="264" y2="940"/>
<line x1="314" y1="590" x2="314" y2="940"/>
<line x1="364" y1="590" x2="364" y2="940"/>
<line x1="414" y1="590" x2="414" y2="940"/>
<line x1="464" y1="590" x2="464" y2="940"/>
<line x1="514" y1="590" x2="514" y2="940"/>
<line x1="564" y1="590" x2="564" y2="940"/>
<line x1="614" y1="590" x2="614" y2="940"/>
<line x1="664" y1="590" x2="664" y2="940"/>
<line x1="714" y1="590" x2="714" y2="940"/>
<line x1="764" y1="590" x2="764" y2="940"/>
<line x1="814" y1="590" x2="814" y2="940"/>
<line x1="864" y1="590" x2="864" y2="940"/>
<line x1="914" y1="590" x2="914" y2="940"/>
<line x1="964" y1="590" x2="964" y2="940"/>
<line x1="1014" y1="590" x2="1014" y2="940"/>
<line x1="1064" y1="590" x2="1064" y2="940"/>
<line x1="1114" y1="590" x2="1114" y2="940"/>
<line x1="1164" y1="590" x2="1164" y2="940"/>
<line x1="1214" y1="590" x2="1214" y2="940"/>
<line x1="1264" y1="590" x2="1264" y2="940"/>
<line x1="1314" y1="590" x2="1314" y2="940"/>
<line x1="1364" y1="590" x2="1364" y2="940"/>
<line x1="214" y1="640" x2="1386" y2="640"/>
<line x1="214" y1="690" x2="1386" y2="690"/>
<line x1="214" y1="740" x2="1386" y2="740"/>
<line x1="214" y1="790" x2="1386" y2="790"/>
<line x1="214" y1="840" x2="1386" y2="840"/>
<line x1="214" y1="890" x2="1386" y2="890"/>
</g>
<rect x="200" y="576" width="1200" height="14" fill="url(#wall)" stroke="#1a1a1a" stroke-width="1.6"/>
<rect x="200" y="576" width="14" height="378" fill="url(#wall)" stroke="#1a1a1a" stroke-width="1.6"/>
<rect x="1386" y="576" width="14" height="378" fill="url(#wall)" stroke="#1a1a1a" stroke-width="1.6"/>
<rect x="200" y="940" width="1200" height="14" fill="url(#floor)" stroke="#111" stroke-width="1.4"/>
<rect x="200" y="576" width="1200" height="378" fill="none" stroke="#111" stroke-width="2"/>
<rect x="214" y="590" width="1172" height="350" fill="none" stroke="#222" stroke-width="1.1"/>
<text x="239.0" y="569" text-anchor="middle" font-size="12.5" font-weight="600" fill="#2a2a2a">24</text>
<text x="289.0" y="569" text-anchor="middle" font-size="12.5" font-weight="600" fill="#2a2a2a">23</text>
<text x="339.0" y="569" text-anchor="middle" font-size="12.5" font-weight="600" fill="#2a2a2a">22</text>
<text x="389.0" y="569" text-anchor="middle" font-size="12.5" font-weight="600" fill="#2a2a2a">21</text>
<text x="439.0" y="569" text-anchor="middle" font-size="12.5" font-weight="600" fill="#2a2a2a">20</text>
<text x="489.0" y="569" text-anchor="middle" font-size="12.5" font-weight="600" fill="#2a2a2a">19</text>
<text x="539.0" y="569" text-anchor="middle" font-size="12.5" font-weight="600" fill="#2a2a2a">18</text>
<text x="589.0" y="569" text-anchor="middle" font-size="12.5" font-weight="600" fill="#2a2a2a">17</text>
<text x="639.0" y="569" text-anchor="middle" font-size="12.5" font-weight="600" fill="#2a2a2a">16</text>
<text x="689.0" y="569" text-anchor="middle" font-size="12.5" font-weight="600" fill="#2a2a2a">15</text>
<text x="739.0" y="569" text-anchor="middle" font-size="12.5" font-weight="600" fill="#2a2a2a">14</text>
<text x="789.0" y="569" text-anchor="middle" font-size="12.5" font-weight="600" fill="#2a2a2a">13</text>
<text x="839.0" y="569" text-anchor="middle" font-size="12.5" font-weight="600" fill="#2a2a2a">12</text>
<text x="889.0" y="569" text-anchor="middle" font-size="12.5" font-weight="600" fill="#2a2a2a">11</text>
<text x="939.0" y="569" text-anchor="middle" font-size="12.5" font-weight="600" fill="#2a2a2a">10</text>
<text x="989.0" y="569" text-anchor="middle" font-size="12.5" font-weight="600" fill="#2a2a2a">9</text>
<text x="1039.0" y="569" text-anchor="middle" font-size="12.5" font-weight="600" fill="#2a2a2a">8</text>
<text x="1089.0" y="569" text-anchor="middle" font-size="12.5" font-weight="600" fill="#2a2a2a">7</text>
<text x="1139.0" y="569" text-anchor="middle" font-size="12.5" font-weight="600" fill="#2a2a2a">6</text>
<text x="1189.0" y="569" text-anchor="middle" font-size="12.5" font-weight="600" fill="#2a2a2a">5</text>
<text x="1239.0" y="569" text-anchor="middle" font-size="12.5" font-weight="600" fill="#2a2a2a">4</text>
<text x="1289.0" y="569" text-anchor="middle" font-size="12.5" font-weight="600" fill="#2a2a2a">3</text>
<text x="1339.0" y="569" text-anchor="middle" font-size="12.5" font-weight="600" fill="#2a2a2a">2</text>
<text x="1389.0" y="569" text-anchor="middle" font-size="12.5" font-weight="600" fill="#2a2a2a">1</text>
<text x="1402" y="619.0" text-anchor="middle" font-size="12.5" font-weight="600" fill="#2a2a2a">7</text>
<text x="1402" y="669.0" text-anchor="middle" font-size="12.5" font-weight="600" fill="#2a2a2a">6</text>
<text x="1402" y="719.0" text-anchor="middle" font-size="12.5" font-weight="600" fill="#2a2a2a">5</text>
<text x="1402" y="769.0" text-anchor="middle" font-size="12.5" font-weight="600" fill="#2a2a2a">4</text>
<text x="1402" y="819.0" text-anchor="middle" font-size="12.5" font-weight="600" fill="#2a2a2a">3</text>
<text x="1402" y="869.0" text-anchor="middle" font-size="12.5" font-weight="600" fill="#2a2a2a">2</text>
<text x="1402" y="919.0" text-anchor="middle" font-size="12.5" font-weight="600" fill="#2a2a2a">1</text>
<rect x="1406" y="940" width="12" height="14" fill="#5a5a5a" stroke="#2a2a2a" stroke-width="1.4"/>
<line x1="1426" y1="934" x2="1426" y2="984" stroke="#444" stroke-width="3"/>
<line x1="1408" y1="972" x2="1426" y2="972" stroke="#444" stroke-width="2.6"/>
<line x1="1412" y1="962" x2="1424" y2="962" stroke="#444" stroke-width="4"/>
<circle cx="1404" cy="972" r="4.5" fill="none" stroke="#444" stroke-width="1.6"/>
<rect x="210" y="956" width="1180" height="5" fill="url(#metal)" stroke="#2a2a2a" stroke-width="0.8"/>
<line x1="531" y1="960" x2="661" y2="960" stroke="#333" stroke-width="3.5"/>
<path d="M548,959 Q566,954 584,959" fill="none" stroke="#555" stroke-width="1.8"/>
<path d="M608,959 Q626,954 644,959" fill="none" stroke="#555" stroke-width="1.8"/>
<rect x="536" y="947" width="14" height="26" rx="3" fill="#2a2a2a" stroke="#111" stroke-width="1.2"/>
<circle cx="543" cy="960" r="4" fill="#555" stroke="#333" stroke-width="0.8"/>
<rect x="642" y="947" width="14" height="26" rx="3" fill="#2a2a2a" stroke="#111" stroke-width="1.2"/>
<circle cx="649" cy="960" r="4" fill="#555" stroke="#333" stroke-width="0.8"/>
<rect x="25" y="939" width="175" height="16" fill="#222" stroke="#111" stroke-width="2"/>
<rect x="7" y="935" width="22" height="24" rx="2" fill="#333" stroke="#111" stroke-width="2.2"/>
<circle cx="1" cy="947" r="5" fill="#555" stroke="#222" stroke-width="2"/>
<circle cx="1" cy="947" r="2" fill="#333"/>
<rect x="125" y="955" width="10" height="70" fill="#444" stroke="#222" stroke-width="1.8"/>
<rect x="120" y="1025" width="20" height="5" rx="1" fill="#555" stroke="#222" stroke-width="1.4"/>
<line x1="120" y1="963" x2="140" y2="963" stroke="#333" stroke-width="3"/>
<circle cx="120" cy="963" r="3" fill="#555" stroke="#333" stroke-width="1"/>
<path d="M95,955 q4,12 0,22 q-4,8 2,14" fill="none" stroke="#444" stroke-width="2" stroke-dasharray="3,2"/>
<path d="M78,955 q4,12 0,22 q-4,8 2,14" fill="none" stroke="#444" stroke-width="2" stroke-dasharray="3,2"/>
<line x1="10" y1="1006" x2="1600" y2="1006" stroke="#b4bac1" stroke-width="0.8" stroke-dasharray="7,5"/>
<text x="1396" y="1026" text-anchor="end" font-size="13" font-weight="700" fill="#1a1a2e" letter-spacing="1">INTERIOR VIEW - LEFT</text>
<rect x="148" y="572" width="44" height="40" rx="3" fill="#fff" stroke="#1a1a1a" stroke-width="1.8"/>
<text x="164" y="599" text-anchor="middle" font-size="22" fill="#1a1a1a">&#8593;</text>
<polygon points="158,584 148,592 158,600" fill="#1a1a1a"/>
<text x="10" y="22" font-size="15" font-weight="800" fill="#0D2244" letter-spacing="1">NOVA FOOD TRAILERS</text>
<text x="1598" y="22" text-anchor="end" font-size="12" font-weight="700" fill="#2a2a2a">24 FT &#183; SHELL (walls incl.)</text>
</svg>