<svg xmlns="http://www.w3.org/2000/svg" viewBox="0 0 1140 1064" width="1140" height="1064" font-family="Arial, Helvetica, sans-serif">
<defs>
  <pattern id="wall" width="7" height="7" patternUnits="userSpaceOnUse" patternTransform="rotate(45)">
    <rect width="7" height="7" fill="#e9ecef"/>
    <line x1="0" y1="0" x2="0" y2="7" stroke="#2b2b2b" stroke-width="1.1"/>
  </pattern>
  <linearGradient id="floor" x1="0" y1="0" x2="0" y2="1">
    <stop offset="0%" stop-color="#3a3a3a"/>
    <stop offset="100%" stop-color="#1c1c1c"/>
  </linearGradient>
  <linearGradient id="metal" x1="0" y1="0" x2="0" y2="1">
    <stop offset="0%" stop-color="#777"/>
    <stop offset="50%" stop-color="#555"/>
    <stop offset="100%" stop-color="#3d3d3d"/>
  </linearGradient>
</defs>
<rect width="1140" height="1064" fill="#ffffff"/>
<rect x="63" y="51" width="1000" height="378" fill="#000" opacity="0.06"/>
<rect x="74" y="62" width="972" height="350" fill="#ffffff"/>
<g stroke="#d3d8df" stroke-width="0.6">
<line x1="124" y1="62" x2="124" y2="412"/>
<line x1="174" y1="62" x2="174" y2="412"/>
<line x1="224" y1="62" x2="224" y2="412"/>
<line x1="274" y1="62" x2="274" y2="412"/>
<line x1="324" y1="62" x2="324" y2="412"/>
<line x1="374" y1="62" x2="374" y2="412"/>
<line x1="424" y1="62" x2="424" y2="412"/>
<line x1="474" y1="62" x2="474" y2="412"/>
<line x1="524" y1="62" x2="524" y2="412"/>
<line x1="574" y1="62" x2="574" y2="412"/>
<line x1="624" y1="62" x2="624" y2="412"/>
<line x1="674" y1="62" x2="674" y2="412"/>
<line x1="724" y1="62" x2="724" y2="412"/>
<line x1="774" y1="62" x2="774" y2="412"/>
<line x1="824" y1="62" x2="824" y2="412"/>
<line x1="874" y1="62" x2="874" y2="412"/>
<line x1="924" y1="62" x2="924" y2="412"/>
<line x1="974" y1="62" x2="974" y2="412"/>
<line x1="1024" y1="62" x2="1024" y2="412"/>
<line x1="74" y1="112" x2="1046" y2="112"/>
<line x1="74" y1="162" x2="1046" y2="162"/>
<line x1="74" y1="212" x2="1046" y2="212"/>
<line x1="74" y1="262" x2="1046" y2="262"/>
<line x1="74" y1="312" x2="1046" y2="312"/>
<line x1="74" y1="362" x2="1046" y2="362"/>
</g>
<rect x="60" y="48" width="1000" height="14" fill="url(#wall)" stroke="#1a1a1a" stroke-width="1.6"/>
<rect x="60" y="48" width="14" height="378" fill="url(#wall)" stroke="#1a1a1a" stroke-width="1.6"/>
<rect x="1046" y="48" width="14" height="378" fill="url(#wall)" stroke="#1a1a1a" stroke-width="1.6"/>
<rect x="60" y="412" width="1000" height="14" fill="url(#floor)" stroke="#111" stroke-width="1.4"/>
<rect x="60" y="48" width="1000" height="378" fill="none" stroke="#111" stroke-width="2"/>
<rect x="74" y="62" width="972" height="350" fill="none" stroke="#222" stroke-width="1.1"/>
<text x="99.0" y="41" text-anchor="middle" font-size="12.5" font-weight="600" fill="#2a2a2a">1</text>
<text x="149.0" y="41" text-anchor="middle" font-size="12.5" font-weight="600" fill="#2a2a2a">2</text>
<text x="199.0" y="41" text-anchor="middle" font-size="12.5" font-weight="600" fill="#2a2a2a">3</text>
<text x="249.0" y="41" text-anchor="middle" font-size="12.5" font-weight="600" fill="#2a2a2a">4</text>
<text x="299.0" y="41" text-anchor="middle" font-size="12.5" font-weight="600" fill="#2a2a2a">5</text>
<text x="349.0" y="41" text-anchor="middle" font-size="12.5" font-weight="600" fill="#2a2a2a">6</text>
<text x="399.0" y="41" text-anchor="middle" font-size="12.5" font-weight="600" fill="#2a2a2a">7</text>
<text x="449.0" y="41" text-anchor="middle" font-size="12.5" font-weight="600" fill="#2a2a2a">8</text>
<text x="499.0" y="41" text-anchor="middle" font-size="12.5" font-weight="600" fill="#2a2a2a">9</text>
<text x="549.0" y="41" text-anchor="middle" font-size="12.5" font-weight="600" fill="#2a2a2a">10</text>
<text x="599.0" y="41" text-anchor="middle" font-size="12.5" font-weight="600" fill="#2a2a2a">11</text>
<text x="649.0" y="41" text-anchor="middle" font-size="12.5" font-weight="600" fill="#2a2a2a">12</text>
<text x="699.0" y="41" text-anchor="middle" font-size="12.5" font-weight="600" fill="#2a2a2a">13</text>
<text x="749.0" y="41" text-anchor="middle" font-size="12.5" font-weight="600" fill="#2a2a2a">14</text>
<text x="799.0" y="41" text-anchor="middle" font-size="12.5" font-weight="600" fill="#2a2a2a">15</text>
<text x="849.0" y="41" text-anchor="middle" font-size="12.5" font-weight="600" fill="#2a2a2a">16</text>
<text x="899.0" y="41" text-anchor="middle" font-size="12.5" font-weight="600" fill="#2a2a2a">17</text>
<text x="949.0" y="41" text-anchor="middle" font-size="12.5" font-weight="600" fill="#2a2a2a">18</text>
<text x="999.0" y="41" text-anchor="middle" font-size="12.5" font-weight="600" fill="#2a2a2a">19</text>
<text x="1049.0" y="41" text-anchor="middle" font-size="12.5" font-weight="600" fill="#2a2a2a">20</text>
<text x="48" y="91.0" text-anchor="middle" font-size="12.5" font-weight="600" fill="#2a2a2a">7</text>
<text x="48" y="141.0" text-anchor="middle" font-size="12.5" font-weight="600" fill="#2a2a2a">6</text>
<text x="48" y="191.0" text-anchor="middle" font-size="12.5" font-weight="600" fill="#2a2a2a">5</text>
<text x="48" y="241.0" text-anchor="middle" font-size="12.5" font-weight="600" fill="#2a2a2a">4</text>
<text x="48" y="291.0" text-anchor="middle" font-size="12.5" font-weight="600" fill="#2a2a2a">3</text>
<text x="48" y="341.0" text-anchor="middle" font-size="12.5" font-weight="600" fill="#2a2a2a">2</text>
<text x="48" y="391.0" text-anchor="middle" font-size="12.5" font-weight="600" fill="#2a2a2a">1</text>
<rect x="56" y="412" width="12" height="14" fill="#5a5a5a" stroke="#2a2a2a" stroke-width="1.4"/>
<line x1="48" y1="406" x2="48" y2="456" stroke="#444" stroke-width="3"/>
<line x1="48" y1="444" x2="66" y2="444" stroke="#444" stroke-width="2.6"/>
<line x1="50" y1="434" x2="62" y2="434" stroke="#444" stroke-width="4"/>
<circle cx="70" cy="444" r="4.5" fill="none" stroke="#444" stroke-width="1.6"/>
<rect x="70" y="428" width="980" height="5" fill="url(#metal)" stroke="#2a2a2a" stroke-width="0.8"/>
<line x1="665" y1="432" x2="795" y2="432" stroke="#333" stroke-width="3.5"/>
<path d="M682,431 Q700,426 718,431" fill="none" stroke="#555" stroke-width="1.8"/>
<path d="M742,431 Q760,426 778,431" fill="none" stroke="#555" stroke-width="1.8"/>
<rect x="670" y="419" width="14" height="26" rx="3" fill="#2a2a2a" stroke="#111" stroke-width="1.2"/>
<circle cx="677" cy="432" r="4" fill="#555" stroke="#333" stroke-width="0.8"/>
<rect x="776" y="419" width="14" height="26" rx="3" fill="#2a2a2a" stroke="#111" stroke-width="1.2"/>
<circle cx="783" cy="432" r="4" fill="#555" stroke="#333" stroke-width="0.8"/>
<line x1="1060" y1="419" x2="1120" y2="419" stroke="#444" stroke-width="5"/>
<rect x="1114" y="409" width="7" height="20" rx="1" fill="url(#metal)" stroke="#333" stroke-width="1.2"/>
<path d="M1121,419 q12,0 12,-8 q0,-7 -9,-7" fill="none" stroke="#2f2f2f" stroke-width="3.2"/>
<path d="M1114,425 q-10,16 -25,12" fill="none" stroke="#888" stroke-width="1.2" stroke-dasharray="2.5,2"/>
<rect x="1082" y="425" width="5" height="46" rx="1" fill="url(#metal)" stroke="#2a2a2a" stroke-width="0.8"/>
<circle cx="1084" cy="475" r="7" fill="#8c929b" stroke="#5a5f66" stroke-width="1.5"/>
<line x1="10" y1="478" x2="1130" y2="478" stroke="#b4bac1" stroke-width="0.8" stroke-dasharray="7,5"/>
<text x="1056" y="498" text-anchor="end" font-size="13" font-weight="700" fill="#1a1a2e" letter-spacing="1">INTERIOR VIEW - RIGHT</text>
<rect x="1078" y="44" width="44" height="40" rx="3" fill="#fff" stroke="#1a1a1a" stroke-width="1.8"/>
<text x="1094" y="71" text-anchor="middle" font-size="22" fill="#1a1a1a">&#8593;</text>
<polygon points="1112,56 1122,64 1112,72" fill="#1a1a1a"/>
<rect x="63" y="579" width="1000" height="378" fill="#000" opacity="0.06"/>
<rect x="74" y="590" width="972" height="350" fill="#ffffff"/>
<g stroke="#d3d8df" stroke-width="0.6">
<line x1="124" y1="590" x2="124" y2="940"/>
<line x1="174" y1="590" x2="174" y2="940"/>
<line x1="224" y1="590" x2="224" y2="940"/>
<line x1="274" y1="590" x2="274" y2="940"/>
<line x1="324" y1="590" x2="324" y2="940"/>
<line x1="374" y1="590" x2="374" y2="940"/>
<line x1="424" y1="590" x2="424" y2="940"/>
<line x1="474" y1="590" x2="474" y2="940"/>
<line x1="524" y1="590" x2="524" y2="940"/>
<line x1="574" y1="590" x2="574" y2="940"/>
<line x1="624" y1="590" x2="624" y2="940"/>
<line x1="674" y1="590" x2="674" y2="940"/>
<line x1="724" y1="590" x2="724" y2="940"/>
<line x1="774" y1="590" x2="774" y2="940"/>
<line x1="824" y1="590" x2="824" y2="940"/>
<line x1="874" y1="590" x2="874" y2="940"/>
<line x1="924" y1="590" x2="924" y2="940"/>
<line x1="974" y1="590" x2="974" y2="940"/>
<line x1="1024" y1="590" x2="1024" y2="940"/>
<line x1="74" y1="640" x2="1046" y2="640"/>
<line x1="74" y1="690" x2="1046" y2="690"/>
<line x1="74" y1="740" x2="1046" y2="740"/>
<line x1="74" y1="790" x2="1046" y2="790"/>
<line x1="74" y1="840" x2="1046" y2="840"/>
<line x1="74" y1="890" x2="1046" y2="890"/>
</g>
<rect x="60" y="576" width="1000" height="14" fill="url(#wall)" stroke="#1a1a1a" stroke-width="1.6"/>
<rect x="60" y="576" width="14" height="378" fill="url(#wall)" stroke="#1a1a1a" stroke-width="1.6"/>
<rect x="1046" y="576" width="14" height="378" fill="url(#wall)" stroke="#1a1a1a" stroke-width="1.6"/>
<rect x="60" y="940" width="1000" height="14" fill="url(#floor)" stroke="#111" stroke-width="1.4"/>
<rect x="60" y="576" width="1000" height="378" fill="none" stroke="#111" stroke-width="2"/>
<rect x="74" y="590" width="972" height="350" fill="none" stroke="#222" stroke-width="1.1"/>
<text x="99.0" y="569" text-anchor="middle" font-size="12.5" font-weight="600" fill="#2a2a2a">20</text>
<text x="149.0" y="569" text-anchor="middle" font-size="12.5" font-weight="600" fill="#2a2a2a">19</text>
<text x="199.0" y="569" text-anchor="middle" font-size="12.5" font-weight="600" fill="#2a2a2a">18</text>
<text x="249.0" y="569" text-anchor="middle" font-size="12.5" font-weight="600" fill="#2a2a2a">17</text>
<text x="299.0" y="569" text-anchor="middle" font-size="12.5" font-weight="600" fill="#2a2a2a">16</text>
<text x="349.0" y="569" text-anchor="middle" font-size="12.5" font-weight="600" fill="#2a2a2a">15</text>
<text x="399.0" y="569" text-anchor="middle" font-size="12.5" font-weight="600" fill="#2a2a2a">14</text>
<text x="449.0" y="569" text-anchor="middle" font-size="12.5" font-weight="600" fill="#2a2a2a">13</text>
<text x="499.0" y="569" text-anchor="middle" font-size="12.5" font-weight="600" fill="#2a2a2a">12</text>
<text x="549.0" y="569" text-anchor="middle" font-size="12.5" font-weight="600" fill="#2a2a2a">11</text>
<text x="599.0" y="569" text-anchor="middle" font-size="12.5" font-weight="600" fill="#2a2a2a">10</text>
<text x="649.0" y="569" text-anchor="middle" font-size="12.5" font-weight="600" fill="#2a2a2a">9</text>
<text x="699.0" y="569" text-anchor="middle" font-size="12.5" font-weight="600" fill="#2a2a2a">8</text>
<text x="749.0" y="569" text-anchor="middle" font-size="12.5" font-weight="600" fill="#2a2a2a">7</text>
<text x="799.0" y="569" text-anchor="middle" font-size="12.5" font-weight="600" fill="#2a2a2a">6</text>
<text x="849.0" y="569" text-anchor="middle" font-size="12.5" font-weight="600" fill="#2a2a2a">5</text>
<text x="899.0" y="569" text-anchor="middle" font-size="12.5" font-weight="600" fill="#2a2a2a">4</text>
<text x="949.0" y="569" text-anchor="middle" font-size="12.5" font-weight="600" fill="#2a2a2a">3</text>
<text x="999.0" y="569" text-anchor="middle" font-size="12.5" font-weight="600" fill="#2a2a2a">2</text>
<text x="1049.0" y="569" text-anchor="middle" font-size="12.5" font-weight="600" fill="#2a2a2a">1</text>
<text x="1062" y="619.0" text-anchor="middle" font-size="12.5" font-weight="600" fill="#2a2a2a">7</text>
<text x="1062" y="669.0" text-anchor="middle" font-size="12.5" font-weight="600" fill="#2a2a2a">6</text>
<text x="1062" y="719.0" text-anchor="middle" font-size="12.5" font-weight="600" fill="#2a2a2a">5</text>
<text x="1062" y="769.0" text-anchor="middle" font-size="12.5" font-weight="600" fill="#2a2a2a">4</text>
<text x="1062" y="819.0" text-anchor="middle" font-size="12.5" font-weight="600" fill="#2a2a2a">3</text>
<text x="1062" y="869.0" text-anchor="middle" font-size="12.5" font-weight="600" fill="#2a2a2a">2</text>
<text x="1062" y="919.0" text-anchor="middle" font-size="12.5" font-weight="600" fill="#2a2a2a">1</text>
<rect x="1066" y="940" width="12" height="14" fill="#5a5a5a" stroke="#2a2a2a" stroke-width="1.4"/>
<line x1="1086" y1="934" x2="1086" y2="984" stroke="#444" stroke-width="3"/>
<line x1="1068" y1="972" x2="1086" y2="972" stroke="#444" stroke-width="2.6"/>
<line x1="1072" y1="962" x2="1084" y2="962" stroke="#444" stroke-width="4"/>
<circle cx="1064" cy="972" r="4.5" fill="none" stroke="#444" stroke-width="1.6"/>
<rect x="70" y="956" width="980" height="5" fill="url(#metal)" stroke="#2a2a2a" stroke-width="0.8"/>
<line x1="325" y1="960" x2="455" y2="960" stroke="#333" stroke-width="3.5"/>
<path d="M342,959 Q360,954 378,959" fill="none" stroke="#555" stroke-width="1.8"/>
<path d="M402,959 Q420,954 438,959" fill="none" stroke="#555" stroke-width="1.8"/>
<rect x="330" y="947" width="14" height="26" rx="3" fill="#2a2a2a" stroke="#111" stroke-width="1.2"/>
<circle cx="337" cy="960" r="4" fill="#555" stroke="#333" stroke-width="0.8"/>
<rect x="436" y="947" width="14" height="26" rx="3" fill="#2a2a2a" stroke="#111" stroke-width="1.2"/>
<circle cx="443" cy="960" r="4" fill="#555" stroke="#333" stroke-width="0.8"/>
<line x1="0" y1="947" x2="60" y2="947" stroke="#444" stroke-width="5"/>
<rect x="-1" y="937" width="7" height="20" rx="1" fill="url(#metal)" stroke="#333" stroke-width="1.2"/>
<path d="M-1,947 q-12,0 -12,-8 q0,-7 9,-7" fill="none" stroke="#2f2f2f" stroke-width="3.2"/>
<path d="M6,953 q10,16 25,12" fill="none" stroke="#888" stroke-width="1.2" stroke-dasharray="2.5,2"/>
<rect x="34" y="953" width="5" height="46" rx="1" fill="url(#metal)" stroke="#2a2a2a" stroke-width="0.8"/>
<circle cx="36" cy="1003" r="7" fill="#8c929b" stroke="#5a5f66" stroke-width="1.5"/>
<line x1="10" y1="1006" x2="1130" y2="1006" stroke="#b4bac1" stroke-width="0.8" stroke-dasharray="7,5"/>
<text x="1056" y="1026" text-anchor="end" font-size="13" font-weight="700" fill="#1a1a2e" letter-spacing="1">INTERIOR VIEW - LEFT</text>
<rect x="8" y="572" width="44" height="40" rx="3" fill="#fff" stroke="#1a1a1a" stroke-width="1.8"/>
<text x="24" y="599" text-anchor="middle" font-size="22" fill="#1a1a1a">&#8593;</text>
<polygon points="18,584 8,592 18,600" fill="#1a1a1a"/>
<text x="10" y="22" font-size="15" font-weight="800" fill="#0D2244" letter-spacing="1">NOVA FOOD TRAILERS</text>
<text x="1128" y="22" text-anchor="end" font-size="12" font-weight="700" fill="#2a2a2a">20 FT &#183; SHELL (walls incl.)</text>
</svg>