<svg xmlns="http://www.w3.org/2000/svg" viewBox="0 0 1200 850" width="1200" height="850" font-family="'Segoe UI',Arial,sans-serif">
  <defs>
    <pattern id="grid" width="40" height="40" patternUnits="userSpaceOnUse">
      <path d="M 40 0 L 0 0 0 40" fill="none" stroke="#e8ecf2" stroke-width="0.3"/>
    </pattern>
    <marker id="a1" markerWidth="7" markerHeight="5" refX="7" refY="2.5" orient="auto">
      <path d="M0,0 L7,2.5 L0,5 Z" fill="#DC2626"/>
    </marker>
    <marker id="a2" markerWidth="7" markerHeight="5" refX="0" refY="2.5" orient="auto">
      <path d="M7,0 L0,2.5 L7,5 Z" fill="#DC2626"/>
    </marker>
  </defs>

  <rect width="1200" height="850" fill="#f8fafc"/>
  <rect width="1200" height="850" fill="url(#grid)"/>

  <!-- TITLE BAR -->
  <rect x="0" y="0" width="1200" height="48" fill="#0D2244"/>
  <rect x="14" y="10" width="28" height="28" rx="4" fill="none" stroke="#C8D8F0" stroke-width="1.5"/>
  <rect x="19" y="15" width="8" height="8" rx="1" fill="#2D6BC4"/>
  <rect x="29" y="15" width="8" height="8" rx="1" fill="#C8D8F0" fill-opacity="0.4"/>
  <rect x="19" y="25" width="8" height="8" rx="1" fill="#C8D8F0" fill-opacity="0.4"/>
  <rect x="29" y="25" width="8" height="8" rx="1" fill="#2D6BC4"/>
  <text x="52" y="28" font-size="14" font-weight="800" fill="#FFF" letter-spacing="3">NOVA</text>
  <text x="52" y="40" font-size="6.5" fill="#94A3B8" letter-spacing="2">FOOD TRAILERS</text>
  <text x="140" y="30" font-size="16" font-weight="800" fill="#FFF" letter-spacing="1">SHAMIN FOOD TRUCK — BOX 15 FT</text>
  <text x="1186" y="25" text-anchor="end" font-size="10" fill="#94A3B8">PAGE 1 OF 2</text>
  <text x="1186" y="40" text-anchor="end" font-size="9" fill="#64748B">Interior: 15' × 7'6" × 6'8"</text>

  <!-- ============================================================ -->
  <!-- LEFT SIDE VIEW -->
  <!-- ============================================================ -->
  <text x="310" y="78" text-anchor="middle" font-size="14" font-weight="800" fill="#0D2244">LEFT SIDE VIEW (LADO IZQUIERDO)</text>

  <g transform="translate(20, 90)">
    <rect x="0" y="0" width="600" height="268" rx="3" fill="#FFFDE7" fill-opacity="0.35" stroke="#333" stroke-width="2.5"/>
    <rect x="6" y="6" width="588" height="256" rx="2" fill="none" stroke="#aaa" stroke-width="0.8"/>

    <!-- Vent hood -->
    <rect x="20" y="10" width="320" height="32" rx="3" fill="#F3E8FF" stroke="#7C3AED" stroke-width="1.5"/>
    <text x="180" y="30" text-anchor="middle" font-size="9" font-weight="700" fill="#5B21B6">VENT HOOD 8ft — TYPE I NSF/ANSI 2</text>

    <!-- Shelf -->
    <line x1="20" y1="48" x2="340" y2="48" stroke="#888" stroke-width="1"/>
    <line x1="20" y1="52" x2="340" y2="52" stroke="#888" stroke-width="0.5"/>

    <!-- Burners -->
    <ellipse cx="80" cy="120" rx="35" ry="18" fill="none" stroke="#EA580C" stroke-width="1.8"/>
    <ellipse cx="160" cy="120" rx="35" ry="18" fill="none" stroke="#EA580C" stroke-width="1.8"/>
    <ellipse cx="240" cy="120" rx="35" ry="18" fill="none" stroke="#EA580C" stroke-width="1.8"/>

    <!-- Counter -->
    <rect x="20" y="148" width="310" height="6" rx="1" fill="#D1D5DB" stroke="#9CA3AF" stroke-width="1"/>

    <!-- Cabinets -->
    <rect x="20" y="155" width="150" height="106" rx="3" fill="#F9FAFB" stroke="#9CA3AF" stroke-width="1"/>
    <line x1="95" y1="155" x2="95" y2="261" stroke="#9CA3AF" stroke-width="0.8"/>
    <rect x="180" y="155" width="150" height="106" rx="3" fill="#F9FAFB" stroke="#9CA3AF" stroke-width="1"/>
    <line x1="255" y1="155" x2="255" y2="261" stroke="#9CA3AF" stroke-width="0.8"/>

    <!-- Fridge -->
    <rect x="350" y="48" width="100" height="213" rx="4" fill="#DBEAFE" stroke="#2563EB" stroke-width="1.5"/>
    <text x="400" y="155" text-anchor="middle" font-size="10" font-weight="600" fill="#1E40AF">FRIDGE</text>

    <!-- 3-comp sink -->
    <rect x="462" y="70" width="110" height="100" rx="3" fill="#E0F2FE" stroke="#0284C7" stroke-width="1.2"/>
    <rect x="468" y="76" width="30" height="55" rx="2" fill="#BAE6FD" stroke="#0284C7" stroke-width="0.6"/>
    <rect x="502" y="76" width="30" height="55" rx="2" fill="#BAE6FD" stroke="#0284C7" stroke-width="0.6"/>
    <rect x="536" y="76" width="30" height="55" rx="2" fill="#BAE6FD" stroke="#0284C7" stroke-width="0.6"/>
    <text x="517" y="150" text-anchor="middle" font-size="7" font-weight="700" fill="#0369A1">3-COMP SINK</text>
    <!-- Faucet -->
    <line x1="502" y1="70" x2="502" y2="56" stroke="#0284C7" stroke-width="2"/>
    <line x1="502" y1="56" x2="516" y2="56" stroke="#0284C7" stroke-width="2"/>
    <circle cx="516" cy="56" r="3" fill="#0284C7"/>

    <!-- Fire ext -->
    <rect x="555" y="48" width="18" height="25" rx="4" fill="#FEE2E2" stroke="#DC2626" stroke-width="1.5"/>
    <text x="564" y="64" text-anchor="middle" font-size="10" font-weight="800" fill="#DC2626">E</text>

    <!-- A/C -->
    <rect x="555" y="8" width="35" height="32" rx="3" fill="#E5E7EB" stroke="#6B7280" stroke-width="1.2"/>
    <text x="572" y="27" text-anchor="middle" font-size="8" font-weight="600" fill="#374151">A/C</text>

    <!-- Hand wash sink -->
    <rect x="470" y="195" width="40" height="40" rx="12" fill="#E0F2FE" stroke="#0284C7" stroke-width="1.2"/>
    <text x="490" y="216" text-anchor="middle" font-size="6.5" font-weight="600" fill="#0369A1">HAND</text>
    <text x="490" y="226" text-anchor="middle" font-size="6.5" font-weight="600" fill="#0369A1">SINK</text>

    <!-- Dimension bottom -->
    <line x1="0" y1="282" x2="600" y2="282" stroke="#DC2626" stroke-width="1.2" marker-start="url(#a2)" marker-end="url(#a1)"/>
    <text x="300" y="298" text-anchor="middle" font-size="12" font-weight="700" fill="#DC2626">15' 0"</text>

    <!-- Height dim -->
    <line x1="618" y1="0" x2="618" y2="268" stroke="#DC2626" stroke-width="1.2" marker-start="url(#a2)" marker-end="url(#a1)"/>
    <text x="636" y="138" text-anchor="middle" font-size="11" font-weight="700" fill="#DC2626" transform="rotate(90,636,138)">6' 8"</text>
  </g>

  <!-- ============================================================ -->
  <!-- RIGHT SIDE VIEW -->
  <!-- ============================================================ -->
  <text x="310" y="428" text-anchor="middle" font-size="14" font-weight="800" fill="#0D2244">RIGHT SIDE VIEW (LADO DERECHO)</text>

  <g transform="translate(20, 440)">
    <rect x="0" y="0" width="600" height="268" rx="3" fill="#FFFDE7" fill-opacity="0.35" stroke="#333" stroke-width="2.5"/>
    <rect x="6" y="6" width="588" height="256" rx="2" fill="none" stroke="#aaa" stroke-width="0.8"/>

    <!-- A/C -->
    <rect x="15" y="8" width="35" height="32" rx="3" fill="#E5E7EB" stroke="#6B7280" stroke-width="1.2"/>
    <text x="32" y="27" text-anchor="middle" font-size="8" font-weight="600" fill="#374151">A/C</text>

    <!-- Service windows -->
    <rect x="70" y="25" width="200" height="110" rx="3" fill="none" stroke="#333" stroke-width="1.8"/>
    <line x1="170" y1="25" x2="170" y2="135" stroke="#333" stroke-width="1"/>
    <path d="M88,60 L88,38 L145,38" fill="none" stroke="#DC2626" stroke-width="1" marker-end="url(#a1)"/>
    <path d="M188,60 L188,38 L245,38" fill="none" stroke="#DC2626" stroke-width="1" marker-end="url(#a1)"/>
    <text x="120" y="85" text-anchor="middle" font-size="8" fill="#333">WINDOW 1</text>
    <text x="220" y="85" text-anchor="middle" font-size="8" fill="#333">WINDOW 2</text>

    <!-- Shelves / counter area -->
    <rect x="290" y="55" width="200" height="8" rx="1" fill="#D1D5DB" stroke="#9CA3AF" stroke-width="0.8"/>
    <rect x="290" y="68" width="200" height="100" rx="3" fill="#F9FAFB" stroke="#9CA3AF" stroke-width="1"/>

    <!-- Table label -->
    <text x="390" y="115" text-anchor="middle" font-size="9" fill="#666">TABLE</text>
    <text x="390" y="128" text-anchor="middle" font-size="8" fill="#666">6ft × 21.5"</text>

    <!-- Lower cabinet -->
    <rect x="290" y="172" width="200" height="88" rx="3" fill="#F9FAFB" stroke="#9CA3AF" stroke-width="0.8"/>
    <line x1="390" y1="172" x2="390" y2="260" stroke="#9CA3AF" stroke-width="0.8"/>

    <!-- Rear -->
    <rect x="520" y="250" width="70" height="14" rx="2" fill="#E5E7EB" stroke="#9CA3AF" stroke-width="0.8"/>
    <text x="555" y="261" text-anchor="middle" font-size="7" fill="#666">REAR</text>

    <!-- Dimension bottom -->
    <line x1="0" y1="282" x2="600" y2="282" stroke="#DC2626" stroke-width="1.2" marker-start="url(#a2)" marker-end="url(#a1)"/>
    <text x="300" y="298" text-anchor="middle" font-size="12" font-weight="700" fill="#DC2626">15' 0"</text>

    <!-- Height dim -->
    <line x1="618" y1="0" x2="618" y2="268" stroke="#DC2626" stroke-width="1.2" marker-start="url(#a2)" marker-end="url(#a1)"/>
    <text x="636" y="138" text-anchor="middle" font-size="11" font-weight="700" fill="#DC2626" transform="rotate(90,636,138)">6' 8"</text>
  </g>

  <!-- ============================================================ -->
  <!-- SPECS PANELS (right side) -->
  <!-- ============================================================ -->

  <!-- NSF COMMERCIAL HOOD -->
  <rect x="670" y="62" width="510" height="175" rx="8" fill="#FFF" stroke="#D1D5DB" stroke-width="1.5"/>
  <rect x="670" y="62" width="510" height="28" rx="8" fill="#7C3AED"/>
  <rect x="670" y="82" width="510" height="8" fill="#7C3AED"/>
  <text x="925" y="82" text-anchor="middle" font-size="12" font-weight="800" fill="#FFF" letter-spacing="2">NSF COMMERCIAL HOOD</text>

  <text x="688" y="112" font-size="11" fill="#555">Type</text>
  <text x="1162" y="112" text-anchor="end" font-size="11" font-weight="700" fill="#0D2244">Type I — Grease rated</text>
  <line x1="688" y1="118" x2="1162" y2="118" stroke="#E5E7EB" stroke-width="0.5"/>
  <text x="688" y="134" font-size="11" fill="#555">Length</text>
  <text x="1162" y="134" text-anchor="end" font-size="11" font-weight="700" fill="#0D2244">8' 0" (2.44m)</text>
  <line x1="688" y1="140" x2="1162" y2="140" stroke="#E5E7EB" stroke-width="0.5"/>
  <text x="688" y="156" font-size="11" fill="#555">CFM Rating</text>
  <text x="1162" y="156" text-anchor="end" font-size="11" font-weight="700" fill="#0D2244">1,200 CFM</text>
  <line x1="688" y1="162" x2="1162" y2="162" stroke="#E5E7EB" stroke-width="0.5"/>
  <text x="688" y="178" font-size="11" fill="#555">Material</text>
  <text x="1162" y="178" text-anchor="end" font-size="11" font-weight="700" fill="#0D2244">430 Stainless Steel — Baffle filters</text>
  <line x1="688" y1="184" x2="1162" y2="184" stroke="#E5E7EB" stroke-width="0.5"/>
  <text x="688" y="200" font-size="11" fill="#555">Fire Suppression</text>
  <text x="1162" y="200" text-anchor="end" font-size="11" font-weight="700" fill="#0D2244">Ansul R-102 system</text>
  <line x1="688" y1="206" x2="1162" y2="206" stroke="#E5E7EB" stroke-width="0.5"/>
  <text x="688" y="222" font-size="11" fill="#555">Certification</text>
  <text x="1162" y="222" text-anchor="end" font-size="11" font-weight="700" fill="#2D6BC4">NSF/ANSI 2 · UL 710</text>

  <!-- NSF SINKS -->
  <rect x="670" y="250" width="510" height="155" rx="8" fill="#FFF" stroke="#D1D5DB" stroke-width="1.5"/>
  <rect x="670" y="250" width="510" height="28" rx="8" fill="#0284C7"/>
  <rect x="670" y="270" width="510" height="8" fill="#0284C7"/>
  <text x="925" y="270" text-anchor="middle" font-size="12" font-weight="800" fill="#FFF" letter-spacing="2">NSF SINKS</text>

  <text x="688" y="300" font-size="11" font-weight="700" fill="#0D2244">3-Compartment Sink</text>
  <line x1="688" y1="306" x2="1162" y2="306" stroke="#E5E7EB" stroke-width="0.5"/>
  <text x="688" y="322" font-size="11" fill="#555">Compartment Size</text>
  <text x="1162" y="322" text-anchor="end" font-size="11" font-weight="700" fill="#0D2244">15"W × 15"D × 12"H each</text>
  <line x1="688" y1="328" x2="1162" y2="328" stroke="#E5E7EB" stroke-width="0.5"/>
  <text x="688" y="344" font-size="11" fill="#555">Material</text>
  <text x="1162" y="344" text-anchor="end" font-size="11" font-weight="700" fill="#0D2244">18-gauge 304 Stainless Steel</text>
  <line x1="688" y1="350" x2="1162" y2="350" stroke="#E5E7EB" stroke-width="0.5"/>
  <text x="688" y="366" font-size="11" fill="#555">Drainboards</text>
  <text x="1162" y="366" text-anchor="end" font-size="11" font-weight="700" fill="#0D2244">Left &amp; right, 18" each</text>
  <line x1="688" y1="372" x2="1162" y2="372" stroke="#E5E7EB" stroke-width="0.5"/>
  <text x="688" y="390" font-size="11" font-weight="700" fill="#0D2244">Hand Wash Sink</text>
  <text x="1162" y="390" text-anchor="end" font-size="11" font-weight="700" fill="#0D2244">12"×12" · Knee-valve faucet</text>

  <!-- INSULATED WALLS -->
  <rect x="670" y="418" width="510" height="155" rx="8" fill="#FFF" stroke="#D1D5DB" stroke-width="1.5"/>
  <rect x="670" y="418" width="510" height="28" rx="8" fill="#1a3a7a"/>
  <rect x="670" y="438" width="510" height="8" fill="#1a3a7a"/>
  <text x="925" y="438" text-anchor="middle" font-size="12" font-weight="800" fill="#FFF" letter-spacing="2">INSULATED WALLS</text>

  <text x="688" y="468" font-size="11" fill="#555">Wall Material</text>
  <text x="1162" y="468" text-anchor="end" font-size="11" font-weight="700" fill="#0D2244">Galvanized steel panels</text>
  <line x1="688" y1="474" x2="1162" y2="474" stroke="#E5E7EB" stroke-width="0.5"/>
  <text x="688" y="490" font-size="11" fill="#555">Insulation Core</text>
  <text x="1162" y="490" text-anchor="end" font-size="11" font-weight="700" fill="#0D2244">Polyurethane foam — 2" (50mm)</text>
  <line x1="688" y1="496" x2="1162" y2="496" stroke="#E5E7EB" stroke-width="0.5"/>
  <text x="688" y="512" font-size="11" fill="#555">R-Value</text>
  <text x="1162" y="512" text-anchor="end" font-size="11" font-weight="700" fill="#0D2244">R-13 per inch</text>
  <line x1="688" y1="518" x2="1162" y2="518" stroke="#E5E7EB" stroke-width="0.5"/>
  <text x="688" y="534" font-size="11" fill="#555">Interior Finish</text>
  <text x="1162" y="534" text-anchor="end" font-size="11" font-weight="700" fill="#0D2244">FRP panels (food-grade)</text>
  <line x1="688" y1="540" x2="1162" y2="540" stroke="#E5E7EB" stroke-width="0.5"/>
  <text x="688" y="556" font-size="11" fill="#555">Floor</text>
  <text x="1162" y="556" text-anchor="end" font-size="11" font-weight="700" fill="#0D2244">Diamond-plate aluminum</text>

  <!-- VEHICLE / CHASSIS -->
  <rect x="670" y="586" width="510" height="155" rx="8" fill="#FFF" stroke="#D1D5DB" stroke-width="1.5"/>
  <rect x="670" y="586" width="510" height="28" rx="8" fill="#374151"/>
  <rect x="670" y="606" width="510" height="8" fill="#374151"/>
  <text x="925" y="606" text-anchor="middle" font-size="12" font-weight="800" fill="#FFF" letter-spacing="2">VEHICLE / CHASSIS</text>

  <text x="688" y="636" font-size="11" fill="#555">Chassis Type</text>
  <text x="1162" y="636" text-anchor="end" font-size="11" font-weight="700" fill="#0D2244">Single axle, 3,500 lb</text>
  <line x1="688" y1="642" x2="1162" y2="642" stroke="#E5E7EB" stroke-width="0.5"/>
  <text x="688" y="658" font-size="11" fill="#555">GVWR</text>
  <text x="1162" y="658" text-anchor="end" font-size="11" font-weight="700" fill="#0D2244">7,000 lbs</text>
  <line x1="688" y1="664" x2="1162" y2="664" stroke="#E5E7EB" stroke-width="0.5"/>
  <text x="688" y="680" font-size="11" fill="#555">Hitch</text>
  <text x="1162" y="680" text-anchor="end" font-size="11" font-weight="700" fill="#0D2244">2-5/16" ball coupler</text>
  <line x1="688" y1="686" x2="1162" y2="686" stroke="#E5E7EB" stroke-width="0.5"/>
  <text x="688" y="702" font-size="11" fill="#555">Brakes</text>
  <text x="1162" y="702" text-anchor="end" font-size="11" font-weight="700" fill="#0D2244">Electric brakes</text>
  <line x1="688" y1="708" x2="1162" y2="708" stroke="#E5E7EB" stroke-width="0.5"/>
  <text x="688" y="724" font-size="11" fill="#555">Tires</text>
  <text x="1162" y="724" text-anchor="end" font-size="11" font-weight="700" fill="#0D2244">ST225/75R15</text>

  <!-- FOOTER -->
  <rect x="0" y="820" width="1200" height="30" fill="#0D2244"/>
  <text x="20" y="839" font-size="10" fill="#94A3B8">Client: Shamin Food Truck · Box 15' × 7'6" × 6'8" · All equipment NSF/ANSI certified</text>
  <text x="1180" y="839" text-anchor="end" font-size="11" font-weight="800" fill="#FFF" letter-spacing="2">NOVA FOOD TRAILERS</text>
</svg>