<svg xmlns="http://www.w3.org/2000/svg" xmlns:xlink="http://www.w3.org/1999/xlink" viewBox="0 0 1400 1000" width="1400" height="1000" font-family="'Segoe UI',Arial,sans-serif">
  <rect width="1400" height="1000" fill="#F8FAFC"/>
  
  <rect x="0" y="0" width="1400" height="52" fill="#0D2244"/>
  <text x="24" y="33" font-size="18" font-weight="800" fill="#FFFFFF" letter-spacing="1">SHAMIN FOOD TRUCK — 15 FT BOX BLUEPRINT</text>
  <text x="500" y="33" font-size="11" fill="#94A3B8">Interior: 15' × 7'6" × 6'8" · Escala: 1 cuadro = 1 pie · NSF Compliant</text>
  <text x="1030" y="33" font-size="10" fill="#94A3B8">PAGE 2 OF 2 — TOP · REAR · FRONT</text>
  <rect x="1240" y="8" width="148" height="36" rx="6" fill="rgba(45,107,196,.15)" stroke="rgba(200,216,240,.3)" stroke-width="1"/>
  <rect x="1248" y="13" width="26" height="26" rx="4" fill="none" stroke="#C8D8F0" stroke-width="1.5"/>
  <rect x="1253" y="18" width="7" height="7" rx="1" fill="#2D6BC4"/>
  <rect x="1262" y="18" width="7" height="7" rx="1" fill="#C8D8F0" fill-opacity="0.5"/>
  <rect x="1253" y="27" width="7" height="7" rx="1" fill="#C8D8F0" fill-opacity="0.5"/>
  <rect x="1262" y="27" width="7" height="7" rx="1" fill="#2D6BC4"/>
  <text x="1282" y="24" font-size="13" font-weight="800" fill="#FFFFFF" letter-spacing="3">NOVA</text>
  <text x="1282" y="36" font-size="6.5" fill="#94A3B8" letter-spacing="2.5">FOOD TRAILERS</text>
  
  <text x="449" y="92" text-anchor="middle" font-size="13" font-weight="800" fill="#0D2244">TOP VIEW (PLANTA)</text>
  <rect x="22" y="98" width="854" height="461" fill="#FFFFFF" stroke="#CBD5E1" stroke-width="1"/>
  <image href="view_top.png" x="24" y="100" width="850" height="457"/>
  
  <text x="229" y="607" text-anchor="middle" font-size="13" font-weight="800" fill="#0D2244">REAR VIEW (TRASERA)</text>
  <rect x="22" y="613" width="414" height="358" fill="#FFFFFF" stroke="#CBD5E1" stroke-width="1"/>
  <image href="view_rear.png" x="24" y="615" width="410" height="354"/>
  
  <text x="660" y="607" text-anchor="middle" font-size="13" font-weight="800" fill="#0D2244">FRONT VIEW (FRENTE DE CAJA)</text>
  <rect x="456" y="613" width="409" height="347" fill="#FFFFFF" stroke="#CBD5E1" stroke-width="1"/>
  <image href="view_front.png" x="458" y="615" width="405" height="343"/>
  <rect x="900" y="96" width="485" height="184" rx="7" fill="#FFFFFF" stroke="#D1D5DB" stroke-width="1.2"/>
  <rect x="900" y="96" width="485" height="24" rx="7" fill="#0D2244"/>
  <rect x="900" y="112" width="485" height="8" fill="#0D2244"/>
  <text x="1142" y="113" text-anchor="middle" font-size="11" font-weight="800" fill="#FFFFFF" letter-spacing="1.5">BOX SPECIFICATIONS</text>
  <text x="912" y="134" font-size="9.5" fill="#475569">Interior length</text>
  <text x="1373" y="134" text-anchor="end" font-size="9.5" font-weight="700" fill="#0D2244">15' 0&quot; (4.57m)</text>
  <line x1="912" y1="139" x2="1373" y2="139" stroke="#EEF2F7" stroke-width="0.6"/>
  <text x="912" y="153" font-size="9.5" fill="#475569">Interior width</text>
  <text x="1373" y="153" text-anchor="end" font-size="9.5" font-weight="700" fill="#0D2244">7' 6&quot; (2.29m)</text>
  <line x1="912" y1="158" x2="1373" y2="158" stroke="#EEF2F7" stroke-width="0.6"/>
  <text x="912" y="172" font-size="9.5" fill="#475569">Interior height</text>
  <text x="1373" y="172" text-anchor="end" font-size="9.5" font-weight="700" fill="#0D2244">6' 8&quot; (2.03m)</text>
  <line x1="912" y1="177" x2="1373" y2="177" stroke="#EEF2F7" stroke-width="0.6"/>
  <text x="912" y="191" font-size="9.5" fill="#475569">Floor area</text>
  <text x="1373" y="191" text-anchor="end" font-size="9.5" font-weight="700" fill="#0D2244">112.5 sq ft</text>
  <line x1="912" y1="196" x2="1373" y2="196" stroke="#EEF2F7" stroke-width="0.6"/>
  <text x="912" y="210" font-size="9.5" fill="#475569">Door opening</text>
  <text x="1373" y="210" text-anchor="end" font-size="9.5" font-weight="700" fill="#0D2244">6'2&quot;W × 6'0&quot;H</text>
  <line x1="912" y1="215" x2="1373" y2="215" stroke="#EEF2F7" stroke-width="0.6"/>
  <text x="912" y="229" font-size="9.5" fill="#475569">Frame</text>
  <text x="1373" y="229" text-anchor="end" font-size="9.5" font-weight="700" fill="#0D2244">Steel tube 2×3&quot; welded</text>
  <line x1="912" y1="234" x2="1373" y2="234" stroke="#EEF2F7" stroke-width="0.6"/>
  <text x="912" y="248" font-size="9.5" fill="#475569">Ext. skin</text>
  <text x="1373" y="248" text-anchor="end" font-size="9.5" font-weight="700" fill="#0D2244">Aluminum .040&quot;</text>
  <line x1="912" y1="253" x2="1373" y2="253" stroke="#EEF2F7" stroke-width="0.6"/>
  <text x="912" y="267" font-size="9.5" fill="#475569">Service windows</text>
  <text x="1373" y="267" text-anchor="end" font-size="9.5" font-weight="700" fill="#0D2244">2 — concession sliding</text>
  <rect x="900" y="296" width="485" height="127" rx="7" fill="#FFFFFF" stroke="#D1D5DB" stroke-width="1.2"/>
  <rect x="900" y="296" width="485" height="24" rx="7" fill="#F59E0B"/>
  <rect x="900" y="312" width="485" height="8" fill="#F59E0B"/>
  <text x="1142" y="313" text-anchor="middle" font-size="11" font-weight="800" fill="#FFFFFF" letter-spacing="1.5">ELECTRICAL</text>
  <text x="912" y="334" font-size="9.5" fill="#475569">Shore power</text>
  <text x="1373" y="334" text-anchor="end" font-size="9.5" font-weight="700" fill="#0D2244">50A 120-240V · NEMA 14-50</text>
  <line x1="912" y1="339" x2="1373" y2="339" stroke="#EEF2F7" stroke-width="0.6"/>
  <text x="912" y="353" font-size="9.5" fill="#475569">Panel</text>
  <text x="1373" y="353" text-anchor="end" font-size="9.5" font-weight="700" fill="#0D2244">100A main, 12-space</text>
  <line x1="912" y1="358" x2="1373" y2="358" stroke="#EEF2F7" stroke-width="0.6"/>
  <text x="912" y="372" font-size="9.5" fill="#475569">Lighting</text>
  <text x="1373" y="372" text-anchor="end" font-size="9.5" font-weight="700" fill="#0D2244">LED recessed ×6</text>
  <line x1="912" y1="377" x2="1373" y2="377" stroke="#EEF2F7" stroke-width="0.6"/>
  <text x="912" y="391" font-size="9.5" fill="#475569">Receptacles</text>
  <text x="1373" y="391" text-anchor="end" font-size="9.5" font-weight="700" fill="#0D2244">4×120V duplex, 1×240V</text>
  <line x1="912" y1="396" x2="1373" y2="396" stroke="#EEF2F7" stroke-width="0.6"/>
  <text x="912" y="410" font-size="9.5" fill="#475569">GFCI</text>
  <text x="1373" y="410" text-anchor="end" font-size="9.5" font-weight="700" fill="#2D6BC4">All — NEC compliant</text>
  <rect x="900" y="439" width="485" height="127" rx="7" fill="#FFFFFF" stroke="#D1D5DB" stroke-width="1.2"/>
  <rect x="900" y="439" width="485" height="24" rx="7" fill="#0284C7"/>
  <rect x="900" y="455" width="485" height="8" fill="#0284C7"/>
  <text x="1142" y="456" text-anchor="middle" font-size="11" font-weight="800" fill="#FFFFFF" letter-spacing="1.5">PLUMBING</text>
  <text x="912" y="477" font-size="9.5" fill="#475569">Fresh water</text>
  <text x="1373" y="477" text-anchor="end" font-size="9.5" font-weight="700" fill="#0D2244">30 gal — FDA poly</text>
  <line x1="912" y1="482" x2="1373" y2="482" stroke="#EEF2F7" stroke-width="0.6"/>
  <text x="912" y="496" font-size="9.5" fill="#475569">Waste water</text>
  <text x="1373" y="496" text-anchor="end" font-size="9.5" font-weight="700" fill="#0D2244">50 gal — below floor</text>
  <line x1="912" y1="501" x2="1373" y2="501" stroke="#EEF2F7" stroke-width="0.6"/>
  <text x="912" y="515" font-size="9.5" fill="#475569">Pump</text>
  <text x="1373" y="515" text-anchor="end" font-size="9.5" font-weight="700" fill="#0D2244">12V demand, 3.5 GPM</text>
  <line x1="912" y1="520" x2="1373" y2="520" stroke="#EEF2F7" stroke-width="0.6"/>
  <text x="912" y="534" font-size="9.5" fill="#475569">Water heater</text>
  <text x="1373" y="534" text-anchor="end" font-size="9.5" font-weight="700" fill="#0D2244">6 gal — LP, 120°F</text>
  <line x1="912" y1="539" x2="1373" y2="539" stroke="#EEF2F7" stroke-width="0.6"/>
  <text x="912" y="553" font-size="9.5" fill="#475569">Grease trap</text>
  <text x="1373" y="553" text-anchor="end" font-size="9.5" font-weight="700" fill="#0D2244">Under 3-comp sink</text>
  <rect x="900" y="582" width="485" height="100" rx="7" fill="#FFFFFF" stroke="#D1D5DB" stroke-width="1.2"/>
  <rect x="900" y="582" width="485" height="24" rx="7" fill="#374151"/>
  <rect x="900" y="598" width="485" height="8" fill="#374151"/>
  <text x="1142" y="599" text-anchor="middle" font-size="11" font-weight="800" fill="#FFFFFF" letter-spacing="1.5">LEGEND</text>
  <rect x="916" y="618" width="16" height="11" rx="2" fill="#FFFDE7" stroke="#333" stroke-width="1.2"/>
  <text x="940" y="627" font-size="9.5" fill="#475569">Box structure</text>
  <rect x="1151" y="618" width="16" height="11" rx="2" fill="#FEF3C7" stroke="#D97706" stroke-width="1.2"/>
  <text x="1175" y="627" font-size="9.5" fill="#475569">Door / opening</text>
  <rect x="916" y="640" width="16" height="11" rx="2" fill="#DBEAFE" stroke="#2563EB" stroke-width="1.2"/>
  <text x="940" y="649" font-size="9.5" fill="#475569">Refrigeration</text>
  <rect x="1151" y="640" width="16" height="11" rx="2" fill="#E0F2FE" stroke="#0284C7" stroke-width="1.2"/>
  <text x="1175" y="649" font-size="9.5" fill="#475569">NSF Sink / plumbing</text>
  <rect x="916" y="662" width="16" height="11" rx="2" fill="#F3E8FF" stroke="#7C3AED" stroke-width="1.2"/>
  <text x="940" y="671" font-size="9.5" fill="#475569">NSF Hood / exhaust</text>
  <rect x="1151" y="662" width="16" height="11" rx="2" fill="#FEE2E2" stroke="#DC2626" stroke-width="1.2"/>
  <text x="1175" y="671" font-size="9.5" fill="#475569">Fire safety</text>
  
  <rect x="0" y="970" width="1400" height="30" fill="#0D2244"/>
  <text x="24" y="990" font-size="10" fill="#94A3B8">Client: Shamin Food Truck</text>
  <text x="300" y="990" font-size="10" fill="#94A3B8">Box: 15' × 7'6" × 6'8"</text>
  <text x="560" y="990" font-size="10" fill="#94A3B8">All equipment NSF/ANSI certified where applicable</text>
  <text x="1090" y="990" font-size="10" fill="#94A3B8">Rev. 3 — June 2026</text>
  <text x="1376" y="990" text-anchor="end" font-size="11" font-weight="800" fill="#FFFFFF" letter-spacing="2">NOVA FOOD TRAILERS</text>
  </svg>